<?xml version="1.0" encoding="utf-8"?>
<!-- Generator: Adobe Illustrator 27.5.0, SVG Export Plug-In . SVG Version: 6.00 Build 0)  -->
<svg version="1.1" id="Capa_1" xmlns="http://www.w3.org/2000/svg" xmlns:xlink="http://www.w3.org/1999/xlink" x="0px" y="0px"
	 viewBox="0 0 50 47.4" style="enable-background:new 0 0 50 47.4;" xml:space="preserve">
<style type="text/css">
	.st0{clip-path:url(#SVGID_00000155860390646545037480000012150554661098839980_);fill:#647185;}
	.st1{fill:#647185;}
</style>
<g>
	<defs>
		<ellipse id="SVGID_1_" cx="88.33" cy="21.21" rx="24.73" ry="26.19"/>
	</defs>
	<clipPath id="SVGID_00000019657696918391748490000003754261563059927464_">
		<use xlink:href="#SVGID_1_"  style="overflow:visible;"/>
	</clipPath>
	
		<circle style="clip-path:url(#SVGID_00000019657696918391748490000003754261563059927464_);fill:#647185;" cx="88.33" cy="11.91" r="11.2"/>
	<path style="clip-path:url(#SVGID_00000019657696918391748490000003754261563059927464_);fill:#647185;" d="M96.61,59H80.06
		c-4.56,0-8.25-3.69-8.25-8.25V34.2c0-4.56,3.69-8.25,8.25-8.25h16.55c4.56,0,8.25,3.69,8.25,8.25v16.55
		C104.86,55.31,101.17,59,96.61,59z"/>
</g>
<path class="st1" d="M23.56,25.09V4.66c-11.21,0-20.43,9.22-20.43,20.43c0,11.29,9.15,20.43,20.43,20.43
	C34.77,45.53,44,36.3,44,25.09v0H23.56z"/>
<path class="st1" d="M46.87,22.96H25.79V1.88h0C37.43,1.88,46.87,11.32,46.87,22.96L46.87,22.96z"/>
</svg>
