<?xml version="1.0" encoding="utf-8"?>
<!-- Generator: Adobe Illustrator 27.5.0, SVG Export Plug-In . SVG Version: 6.00 Build 0)  -->
<svg version="1.1" id="Capa_1" xmlns="http://www.w3.org/2000/svg" xmlns:xlink="http://www.w3.org/1999/xlink" x="0px" y="0px"
	 viewBox="0 0 50 47.4" style="enable-background:new 0 0 50 47.4;" xml:space="preserve">
<style type="text/css">
	.st0{fill:#647184;}
</style>
<path class="st0" d="M34.62,29.7L18.87,15.25c-0.22-0.2-0.24-0.55-0.03-0.77l7.81-8.51c3.87-4.22,10.43-4.5,14.65-0.63l1.8,1.65
	c3.93,3.61,4.19,9.71,0.59,13.64l-8.29,9.03C35.19,29.89,34.84,29.9,34.62,29.7z"/>
<path class="st0" d="M16.38,18.08l15.75,14.44c0.22,0.2,0.24,0.55,0.03,0.77l-7.81,8.51c-3.87,4.22-10.43,4.5-14.65,0.63l-1.8-1.65
	c-3.93-3.61-4.19-9.71-0.59-13.64l8.29-9.03C15.81,17.89,16.16,17.88,16.38,18.08z"/>
</svg>
